Coordinates
version=1
nRows=9
nColumns=63
inDegrees=yes

Units are S.I. units (second, meters, Newtons, ...)
If the header above contains a line with 'inDegrees', this indicates whether rotational values are in degrees (yes) or radians (no).

endheader
time	pelvis_tilt	pelvis_list	pelvis_rotation	pelvis_tx	pelvis_ty	pelvis_tz	hip_flexion_r	hip_adduction_r	hip_rotation_r	knee_angle_r	knee_angle_r_beta	ankle_angle_r	subtalar_angle_r	mtp_angle_r	hip_flexion_l	hip_adduction_l	hip_rotation_l	knee_angle_l	knee_angle_l_beta	ankle_angle_l	subtalar_angle_l	mtp_angle_l	L5_S1_Flex_Ext	L5_S1_Lat_Bending	L5_S1_axial_rotation	L4_L5_Flex_Ext	L4_L5_Lat_Bending	L4_L5_axial_rotation	L3_L4_Flex_Ext	L3_L4_Lat_Bending	L3_L4_axial_rotation	L2_L3_Flex_Ext	L2_L3_Lat_Bending	L2_L3_axial_rotation	L1_L2_Flex_Ext	L1_L2_Lat_Bending	L1_L2_axial_rotation	L1_T12_Flex_Ext	L1_T12_Lat_Bending	L1_T12_axial_rotation	Abs_r3	Abs_r2	Abs_r1	Abs_t1	Abs_t2	neck_flexion	neck_bending	neck_rotation	arm_flex_r	arm_add_r	arm_rot_r	elbow_flex_r	pro_sup_r	wrist_flex_r	wrist_dev_r	arm_flex_l	arm_add_l	arm_rot_l	elbow_flex_l	pro_sup_l	wrist_flex_l	wrist_dev_l
1.142857	4.592161	3.538531	98.946349	0.018336	1.010272	0.680163	-7.752400	3.254473	11.175104	1.233278	0.021525	20.705735	-11.396698	0.000000	-6.095983	-2.918328	12.346620	2.143596	0.037413	22.954518	-13.720256	0.000000	0.012001	0.085645	-0.759454	0.022287	0.113908	-0.806920	0.019716	0.208238	-0.806920	0.013716	0.208238	-0.664523	0.011144	0.174648	-0.617057	0.006857	0.132665	-0.569591	0.085721	0.968839	-4.223858	0.000000	0.000000	16.412517	8.658822	-3.353676	59.279432	-22.209253	0.004822	96.116106	89.290045	-20.625520	-7.125262	67.495884	-24.107839	7.381322	114.005636	89.357947	-8.392632	6.688164
1.160714	4.599435	3.579668	98.982784	0.018393	1.010613	0.679285	-7.861459	3.294348	11.424304	1.166190	0.020354	20.490377	-11.832057	0.000000	-6.217697	-2.966295	12.364032	2.054769	0.035862	22.901132	-13.753435	0.000000	0.014642	0.094593	-0.753994	0.027192	0.125809	-0.801119	0.024056	0.229993	-0.801119	0.016735	0.229993	-0.659745	0.013597	0.192894	-0.612620	0.008367	0.146524	-0.565495	0.104588	1.070053	-4.193488	0.000000	0.000000	16.479791	8.874446	-3.099433	57.078911	-21.962531	-0.662205	97.839570	89.325479	-20.467625	-7.135238	64.597566	-23.913010	6.797727	114.852256	89.320575	-9.406074	4.027832
1.178571	4.629420	3.589411	99.021369	0.018342	1.010917	0.678436	-7.921522	3.346830	11.582836	1.103638	0.019262	20.324862	-12.188324	0.000000	-6.299202	-3.026351	12.356160	1.963517	0.034270	22.881524	-13.729353	0.000000	0.018364	0.112274	-0.745512	0.034103	0.149324	-0.792107	0.030169	0.272983	-0.792107	0.020988	0.272983	-0.652323	0.017052	0.228949	-0.605729	0.010493	0.173912	-0.559134	0.131169	1.270064	-4.146315	0.000000	0.000000	16.590373	8.943451	-2.613635	54.843590	-21.546465	-1.419991	99.466246	89.283260	-19.981596	-7.028194	61.644362	-23.645637	6.195102	115.634585	89.248895	-10.784395	1.156085
1.196429	4.672320	3.568407	99.033574	0.018214	1.011159	0.677529	-7.942344	3.399098	11.664052	1.042638	0.018197	20.216578	-12.444508	0.000000	-6.356698	-3.085221	12.310544	1.858056	0.032429	22.890989	-13.676155	0.000000	0.023317	0.136358	-0.736442	0.043302	0.181356	-0.782470	0.038308	0.331541	-0.782470	0.026649	0.331541	-0.644387	0.021652	0.278062	-0.598359	0.013323	0.211219	-0.552332	0.166552	1.542511	-4.095872	0.000000	0.000000	16.744554	8.873871	-2.001973	52.576110	-20.950398	-2.162978	100.890492	89.159123	-19.237970	-6.826069	58.639102	-23.275668	5.435297	116.399279	89.152142	-12.016069	-1.270974
1.214286	4.718048	3.536222	99.012277	0.018029	1.011332	0.676520	-7.951556	3.444195	11.680878	0.982578	0.017149	20.165862	-12.602223	0.000000	-6.416044	-3.136444	12.220594	1.738717	0.030346	22.938279	-13.581099	0.000000	0.028694	0.164907	-0.724440	0.053288	0.219326	-0.769717	0.047142	0.400955	-0.769717	0.032794	0.400955	-0.633885	0.026645	0.336278	-0.588607	0.016396	0.255441	-0.543330	0.204959	1.865461	-4.029116	0.000000	0.000000	16.894683	8.664644	-1.308065	50.242884	-20.199032	-2.823637	102.014751	89.001499	-18.256363	-6.478997	55.574244	-22.801215	4.619113	117.030815	89.048051	-13.259673	-3.386815
1.232143	4.753698	3.491536	98.950432	0.017846	1.011398	0.675382	-7.949926	3.471628	11.708373	0.931654	0.016260	20.160889	-12.751415	0.000000	-6.477999	-3.166742	12.126285	1.611214	0.028121	23.015724	-13.516032	0.000000	0.036624	0.194434	-0.712130	0.068014	0.258597	-0.756638	0.060169	0.472747	-0.756638	0.041857	0.472747	-0.623114	0.034009	0.396490	-0.578606	0.020927	0.301178	-0.534098	0.261598	2.199477	-3.960655	0.000000	0.000000	17.014842	8.332290	-0.607636	47.829289	-19.328925	-3.221009	102.713631	88.845039	-17.338431	-6.053071	52.416801	-22.251199	3.744315	117.485030	88.954595	-14.274536	-5.058634
1.250000	4.773435	3.457372	98.841041	0.017693	1.011352	0.674093	-7.966985	3.477416	11.741083	0.888635	0.015510	20.211954	-12.847575	0.000000	-6.570396	-3.174493	12.003563	1.476881	0.025776	23.138190	-13.452843	0.000000	0.044947	0.223138	-0.695643	0.083472	0.296774	-0.739120	0.073844	0.542538	-0.739120	0.051370	0.542538	-0.608687	0.041738	0.455024	-0.565210	0.025683	0.345641	-0.521732	0.321055	2.524185	-3.868956	0.000000	0.000000	17.097247	7.902629	0.049887	45.307551	-18.413778	-3.274029	102.911086	88.715096	-16.521026	-5.504978	49.115614	-21.605487	2.855577	117.713874	88.883760	-15.049757	-6.258757
1.267857	4.778352	3.439846	98.681181	0.017579	1.011176	0.672661	-8.012610	3.462496	11.810332	0.848620	0.014811	20.311121	-12.909927	0.000000	-6.699750	-3.160493	11.851765	1.338283	0.023357	23.305812	-13.405397	0.000000	0.053669	0.250850	-0.676049	0.099668	0.333631	-0.718302	0.088173	0.609918	-0.718302	0.061338	0.609918	-0.591543	0.049837	0.511534	-0.549290	0.030666	0.388567	-0.507037	0.383351	2.837669	-3.759981	0.000000	0.000000	17.145001	7.400919	0.685007	42.680822	-17.505907	-2.868470	102.540525	88.626603	-15.913106	-4.759550	45.598609	-20.871875	1.946038	117.705960	88.841353	-15.495975	-6.940089
1.285714	4.765013	3.448782	98.465900	0.017532	1.010878	0.671098	-8.099425	3.423716	11.976306	0.808470	0.014110	20.448910	-12.988977	0.000000	-6.877378	-3.121778	11.674058	1.196607	0.020885	23.507114	-13.392684	0.000000	0.061026	0.276202	-0.652770	0.113332	0.367349	-0.693568	0.100260	0.671558	-0.693568	0.069747	0.671558	-0.571173	0.056669	0.563232	-0.530375	0.034870	0.427837	-0.489577	0.435905	3.124455	-3.630508	0.000000	0.000000	17.182479	6.855288	1.271585	39.933856	-16.644709	-2.002245	101.617256	88.602786	-15.428215	-3.681251	41.825759	-20.084222	1.106236	117.447023	88.829466	-15.801800	-7.202822
